<?xml version="1.0" encoding="UTF-8" standalone="no" ?>
<!DOCTYPE svg PUBLIC "-//W3C//DTD SVG 1.1//EN" "http://www.w3.org/Graphics/SVG/1.1/DTD/svg11.dtd">
<svg xmlns="http://www.w3.org/2000/svg" xmlns:xlink="http://www.w3.org/1999/xlink" version="1.1" width="640" height="180" viewBox="0 0 640 180" xml:space="preserve">
<desc>Created with Fabric.js 4.6.0</desc>
<defs>
</defs>
<g transform="matrix(1 0 0 1 320 90)" id="PiQ87uwU31mgpNSFeOCAX"  >
<linearGradient id="SVGID_200" gradientUnits="userSpaceOnUse" gradientTransform="matrix(1 0 0 1 0 0)"  x1="0" y1="1.4210854715202004e-14" x2="641.0639984753363" y2="179.99910999999997">
<stop offset="0%" style="stop-color:#ECE9E6;stop-opacity: 1"/>
<stop offset="100%" style="stop-color:#EEF2F3;stop-opacity: 1"/>
</linearGradient>
<path style="stroke: rgb(188,54,3); stroke-width: 0; stroke-dasharray: none; stroke-linecap: butt; stroke-dashoffset: 0; stroke-linejoin: miter; stroke-miterlimit: 4; fill: url(#SVGID_200); fill-rule: nonzero; opacity: 1;" vector-effect="non-scaling-stroke"  transform=" translate(-323.04, -90)" d="M 0 19.62445 C 0 8.78617 8.78616 0 19.62445 0 L 626.4619700000001 0 C 637.3002500000001 0 646.0864200000001 8.78616 646.0864200000001 19.62445 L 646.0864200000001 160.37466 C 646.0864200000001 171.21294 637.3002600000001 179.99911 626.4619700000001 179.99911 L 19.624450000000024 179.99911 C 8.786170000000025 179.99911 2.4868995751603507e-14 171.21295 2.4868995751603507e-14 160.37466 z M 205.62606 125.84727 C 205.62606 132.77939999999998 211.24566 138.399 218.17779 138.399 L 288.60051999999996 138.399 C 291.44710999999995 138.399 294.02637999999996 136.72163 295.18082 134.11964 C 296.33526 131.51765 295.84805 128.47976 293.93782999999996 126.36927 L 216.74112999999994 41.079359999999994 C 214.96985999999995 39.122389999999996 212.17672999999994 38.457559999999994 209.71374999999995 39.406679999999994 C 207.25076999999996 40.35578999999999 205.62605999999994 42.72304 205.62605999999994 45.36256999999999 z M 184.62034 51.97184 C 184.62034 45.03971 179.00074 39.42011 172.06861 39.42011 L 101.64588 39.42011 C 98.79929 39.42011 96.22002 41.097480000000004 95.06558000000001 43.69947 C 93.91114000000002 46.30146 94.39835000000001 49.339349999999996 96.30857000000002 51.449839999999995 L 173.50527000000002 136.73975000000002 C 175.27654 138.69672000000003 178.06967000000003 139.36155000000002 180.53265000000002 138.41243000000003 C 182.99563 137.46332000000004 184.62034000000003 135.09607000000003 184.62034000000003 132.45654000000002 z M 392.78346 64.87074 L 410.4733 48.59307 C 412.07606 47.118249999999996 412.61016 44.81135 411.81864 42.782199999999996 C 411.02711 40.75306 409.07203000000004 39.41712999999999 406.89397 39.41712999999999 L 323.34929 39.41712999999999 C 321.17123 39.41712999999999 319.21614 40.75305999999999 318.42462 42.782199999999996 C 317.63309 44.811339999999994 318.16719 47.118249999999996 319.76996 48.59307 L 357.87382 83.65512 C 361.97047000000003 87.42474 368.2728 87.42474 372.36946 83.65512 z M 479.98672 95.87569 C 483.06005 91.74134000000001 483.06005 86.08123 479.98672 81.94689000000001 L 463.16154 59.313130000000015 L 449.39763 40.797480000000014 C 448.22186 39.215800000000016 446.16462 38.56594000000001 444.29361 39.18519000000001 C 442.4226 39.804440000000014 441.15926 41.553300000000014 441.15926 43.52412000000001 L 441.15926 134.29846 C 441.15926 136.26928 442.42260000000005 138.01814000000002 444.29361 138.63739 C 446.16462 139.25663 448.22186 138.60678000000001 449.39763 137.0251 L 463.16154 118.50945000000002 z M 506.25169 118.77266 L 519.55203 137.37916 C 520.67467 138.94967000000003 522.68323 139.61516 524.52153 139.02569000000003 C 526.35983 138.43622000000002 527.60685 136.72679000000002 527.60685 134.79629000000003 L 527.60685 42.999450000000024 C 527.60685 41.06895000000002 526.35983 39.359520000000025 524.52153 38.770050000000026 C 522.68323 38.18058000000003 520.67467 38.846070000000026 519.55203 40.416580000000025 L 506.25168999999994 59.02308000000002 L 489.81555999999995 82.01640000000002 C 486.8734099999999 86.13232000000002 486.8734099999999 91.66339000000002 489.81555999999995 95.77932000000001 z M 371.65713 94.03967 C 367.96388 90.64161 362.28252 90.64161 358.58927 94.03967 L 337.86445 113.10799 L 319.5961 129.91618 C 318.15117999999995 131.2456 317.66961999999995 133.3252 318.38311 135.15443 C 319.09659999999997 136.98366 320.85904999999997 138.18798999999999 322.8225 138.18798999999999 L 407.4239 138.18798999999999 C 409.38736 138.18798999999999 411.1498 136.98366 411.86329 135.15443 C 412.57677 133.3252 412.09522 131.24561 410.6503 129.91618 L 392.38195 113.10799 z M 35.54207 131.53017 C 35.54207 135.73794 38.953140000000005 139.149 43.160900000000005 139.149 L 60.96549 139.149 C 65.17326 139.149 68.58432 135.73793 68.58432 131.53017 L 68.58432 46.28895 C 68.58432 42.08118 65.17325000000001 38.67012 60.96549 38.67012 L 43.1609 38.67012 C 38.95313 38.67012 35.542069999999995 42.08119 35.542069999999995 46.28895 z M 565.12208 131.53017 C 565.12208 135.73794 568.53315 139.149 572.74091 139.149 L 590.5455 139.149 C 594.7532699999999 139.149 598.16433 135.73793 598.16433 131.53017 L 598.16433 46.28895 C 598.16433 42.08118 594.75326 38.67012 590.5455 38.67012 L 572.74091 38.67012 C 568.53314 38.67012 565.12208 42.08119 565.12208 46.28895 z" stroke-linecap="round" />
</g>
</svg>