<?xml version="1.0" encoding="UTF-8" standalone="no" ?>
<!DOCTYPE svg PUBLIC "-//W3C//DTD SVG 1.1//EN" "http://www.w3.org/Graphics/SVG/1.1/DTD/svg11.dtd">
<svg xmlns="http://www.w3.org/2000/svg" xmlns:xlink="http://www.w3.org/1999/xlink" version="1.1" width="250" height="250" viewBox="0 0 500 500" xml:space="preserve">
<desc>Created with Fabric.js 4.6.0</desc>
<defs>
</defs>
<g transform="matrix(1.66 0 0 1.66 250 250)" id="8FCm5J1sgDtSAqiNFimDs"  >
<path style="stroke: none; stroke-width: 1; stroke-dasharray: none; stroke-linecap: butt; stroke-dashoffset: 0; stroke-linejoin: miter; stroke-miterlimit: 4; fill: rgb(248,249,249); fill-rule: nonzero; opacity: 1;" vector-effect="non-scaling-stroke"  transform=" translate(-147.5, -50)" d="M 85.77399 73.6295 C 85.77399 74.19350999999999 85.43424 74.70197999999999 84.91317 74.91780999999999 C 84.3921 75.13364999999999 83.79231999999999 75.01433999999999 83.39349999999999 74.61552999999999 L 38.15447999999999 29.376509999999996 C 37.755669999999995 28.977699999999995 37.63635999999999 28.377919999999996 37.85219999999999 27.856839999999995 C 38.06803999999999 27.335769999999993 38.57650999999999 26.996019999999994 39.14050999999999 26.996019999999994 L 83.19736999999999 26.996019999999994 C 84.62039999999999 26.996019999999994 85.77399 28.149609999999996 85.77399 29.572639999999993 z M 16.14585 26.87553 C 16.14585 26.115850000000002 16.761689999999998 25.5 17.52138 25.5 L 30.93863 25.5 C 31.69831 25.5 32.31416 26.11584 32.31416 26.87553 L 32.31416 74.12448 C 32.31416 74.88416000000001 31.698320000000002 75.50001 30.93863 75.50001 L 17.52138 75.50001 C 16.7617 75.50001 16.14585 74.88417 16.14585 74.12448 z M 91.71447 28.97263 C 91.71447 28.415229999999998 92.05024 27.912709999999997 92.56521000000001 27.69941 C 93.08018000000001 27.4861 93.67294000000001 27.60401 94.06708 27.99815 L 139.36186 73.29293 C 139.756 73.68706999999999 139.87391 74.27983 139.66060000000002 74.7948 C 139.44729 75.30977 138.94478 75.64554 138.38738 75.64554 L 94.26092 75.64554 C 92.85455999999999 75.64554 91.71447 74.50546 91.71447 73.09908999999999 z M 181.20883 63.14555 L 191.26896 73.20568 C 191.67772 73.61444 191.79999999999998 74.22918 191.57878 74.76325 C 191.35756 75.29732 190.83641 75.64554 190.25833 75.64554 L 147.15929 75.64554 C 146.58122 75.64554 146.06006 75.29732 145.83884 74.76325 C 145.61762000000002 74.22918 145.7399 73.61444 146.14866 73.20568 L 166.84140000000002 52.51294 C 167.87273000000002 51.48161 169.54485000000003 51.48161 170.57619000000003 52.51294 z M 170.56056 49.93875 C 169.42436 51.07495 167.58223 51.07495 166.44603 49.93875 L 146.19123000000002 29.68395 C 145.74091 29.233629999999998 145.60620000000003 28.55638 145.84991000000002 27.96801 C 146.09362000000002 27.37964 146.66776000000002 26.99601 147.30461000000003 26.99601 L 189.70195 26.99601 C 190.33880000000002 26.99601 190.91294000000002 27.37964 191.15665 27.96801 C 191.40036 28.55638 191.26565000000002 29.233629999999998 190.81533000000002 29.68395 L 181.00327000000001 39.49601 z M 211.8826 63.49999 L 201.62462 73.75797 C 201.24901 74.13358 200.68411 74.24595 200.19334999999998 74.04267 C 199.70259 73.83939 199.38259999999997 73.3605 199.38259999999997 72.8293 L 199.38259999999997 29.170700000000004 C 199.38259999999997 28.639500000000005 199.70258999999996 28.160610000000005 200.19334999999998 27.957330000000002 C 200.68410999999998 27.754050000000003 201.24900999999997 27.866410000000002 201.62462 28.242030000000003 L 222.66663 49.284040000000005 C 223.61433 50.23174 223.61433 51.76827 222.66663 52.71598 z M 224.9556 52.49283 C 224.13113 51.66836 224.13113 50.33162 224.9556 49.507149999999996 L 246.51227 27.950479999999995 C 246.83904 27.623709999999996 247.33048 27.525949999999995 247.75743 27.702799999999996 C 248.18438 27.879649999999998 248.46276 28.296269999999996 248.46276 28.758399999999995 L 248.46276 73.24159999999999 C 248.46276 73.70373 248.18438 74.12034999999999 247.75743 74.29719999999999 C 247.33048 74.47404999999999 246.83904 74.37628999999998 246.51227 74.04951999999999 L 235.96276 63.50000999999999 z M 263.47391 46.31372 C 263.47391 45.660650000000004 263.52036 45.01843 263.61015 44.39018 L 260.48945 44.39018 C 259.73008 44.39018 259.05060999999995 43.91843 258.7852 43.20695 C 258.51979 42.49546 258.72429999999997 41.69397 259.29814999999996 41.19663 L 276.03572999999994 26.69072 C 276.67531999999994 26.136409999999998 277.57956999999993 26.00633 278.34946999999994 26.357889999999998 C 279.11936999999995 26.709449999999997 279.61328999999995 27.47797 279.61328999999995 28.32434 L 279.61328999999995 35.133539999999996 C 279.63233999999994 35.262769999999996 279.64221 35.39499 279.64221 35.529509999999995 L 279.64221 71.17598999999998 C 279.64221 72.64587999999999 278.45063 73.83745999999998 276.98073999999997 73.83745999999998 L 266.13537999999994 73.83745999999998 C 264.6654899999999 73.83745999999998 263.47390999999993 72.64587999999998 263.47390999999993 71.17598999999998 z M 0 94.73308 C 0 97.64192 2.35808 100 5.26692 100 L 289.73308000000003 100 C 292.64192 100 295.00000000000006 97.64192 295.00000000000006 94.73308 L 295.00000000000006 5.266919999999999 C 295.00000000000006 2.358079999999999 292.6419200000001 -8.881784197001252e-16 289.73308000000003 -8.881784197001252e-16 L 5.266920000000027 -8.881784197001252e-16 C 2.3580800000000273 -8.881784197001252e-16 2.7533531010703882e-14 2.3580799999999993 2.7533531010703882e-14 5.266919999999999 z" stroke-linecap="round" />
</g>
</svg>